HIERARCHY
ROOT Hips
{
	OFFSET 56.877701 -32.693596 43.373703
	CHANNELS 6 Xposition Yposition Zposition Zrotation Xrotation Yrotation
	JOINT Chest
	{
		OFFSET -0.779999 1.005800 5.403099
		CHANNELS 6 Xposition Yposition Zposition Zrotation Xrotation Yrotation
		JOINT Chest2
		{
			OFFSET 0.000000 0.000000 4.236801
			CHANNELS 6 Xposition Yposition Zposition Zrotation Xrotation Yrotation
			JOINT Neck
			{
				OFFSET 0.000000 0.000000 9.874401
				CHANNELS 6 Xposition Yposition Zposition Zrotation Xrotation Yrotation
				JOINT Head
				{
					OFFSET 0.000000 0.000002 2.173893
					CHANNELS 6 Xposition Yposition Zposition Zrotation Xrotation Yrotation
					End Site
					{
						OFFSET 0.000000 0.000000 6.508102
					}
				}
			}
			JOINT LeftCollar
			{
				OFFSET 2.681599 -0.377600 5.432499
				CHANNELS 6 Xposition Yposition Zposition Zrotation Xrotation Yrotation
				JOINT LeftShoulder
				{
					OFFSET 5.161499 0.000000 0.000000
					CHANNELS 6 Xposition Yposition Zposition Zrotation Xrotation Yrotation
					JOINT LeftElbow
					{
						OFFSET 0.000000 0.000000 -10.869099
						CHANNELS 6 Xposition Yposition Zposition Zrotation Xrotation Yrotation
						JOINT LeftWrist
						{
							OFFSET 0.000000 0.000000 -13.344799
							CHANNELS 6 Xposition Yposition Zposition Zrotation Xrotation Yrotation
							End Site
							{
								OFFSET 0.000000 0.000000 -2.173901
							}
						}
					}
				}
			}
			JOINT RightCollar
			{
				OFFSET -2.381901 -1.419600 6.136600
				CHANNELS 6 Xposition Yposition Zposition Zrotation Xrotation Yrotation
				JOINT RightShoulder
				{
					OFFSET -4.550499 0.000000 0.000000
					CHANNELS 6 Xposition Yposition Zposition Zrotation Xrotation Yrotation
					JOINT RightElbow
					{
						OFFSET 0.000000 0.000000 -11.106499
						CHANNELS 6 Xposition Yposition Zposition Zrotation Xrotation Yrotation
						JOINT RightWrist
						{
							OFFSET 0.000000 0.000000 -12.874298
							CHANNELS 6 Xposition Yposition Zposition Zrotation Xrotation Yrotation
							End Site
							{
								OFFSET 0.000000 0.000000 -2.173901
							}
						}
					}
				}
			}
		}
	}
	JOINT LeftHip
	{
		OFFSET 2.431900 0.469601 -2.489399
		CHANNELS 6 Xposition Yposition Zposition Zrotation Xrotation Yrotation
		JOINT LeftKnee
		{
			OFFSET 0.000000 -0.000004 -18.200201
			CHANNELS 6 Xposition Yposition Zposition Zrotation Xrotation Yrotation
			JOINT LeftAnkle
			{
				OFFSET 0.000000 0.000000 -16.279900
				CHANNELS 6 Xposition Yposition Zposition Zrotation Xrotation Yrotation
				End Site
				{
					OFFSET 0.000000 -8.394100 0.000000
				}
			}
		}
	}
	JOINT RightHip
	{
		OFFSET -1.987999 -0.073502 -2.713001
		CHANNELS 6 Xposition Yposition Zposition Zrotation Xrotation Yrotation
		JOINT RightKnee
		{
			OFFSET 0.000000 -0.000004 -19.547802
			CHANNELS 6 Xposition Yposition Zposition Zrotation Xrotation Yrotation
			JOINT RightAnkle
			{
				OFFSET 0.000000 0.000000 -14.881199
				CHANNELS 6 Xposition Yposition Zposition Zrotation Xrotation Yrotation
				End Site
				{
					OFFSET 0.000000 -7.922699 0.000000
				}
			}
		}
	}
}
MOTION
Frames: 4
Frame Time: 0.041667
65.005096 -43.364399 9.031010 4747.108679 1.297013 -21.246873 -0.779992 1.005800 5.403097 -20.349246 19.105957 13.689787 0.000013 -0.000006 4.236794 4.571298 -2.954428 -0.473925 -0.000004 0.000010 9.874403 -39.770931 25.860949 16.956925 0.000005 -0.000003 2.173892 -2.419327 5.084841 -6.749441 2.681607 -0.377599 5.432501 -10.474350 5.447872 -19.360982 5.161508 0.000006 0.000007 -218.737027 -205.964505 -251.446202 0.000003 0.000002 -10.869092 -16.771799 2.166618 -0.588796 -0.000001 -0.000002 -13.344812 -19.279356 10.623570 -30.499376 -2.381895 -1.419598 6.136594 8.927026 2.534975 2.721058 -4.550505 -0.000002 0.000001 -1242.629102 -547.476927 -486.977188 0.000004 -0.000005 -11.106503 723.525818 -9.228533 718.557211 -0.000003 -0.000003 -12.874300 -316.953863 -2.467948 30.166821 2.431901 0.469596 -2.489397 158.282312 -41.584903 137.388408 0.000002 -0.000001 -18.200199 -114.736878 34.616027 117.341298 0.000005 0.000001 -16.279903 0.953663 39.768046 37.459298 -1.987995 -0.073509 -2.713004 -115.344068 -21.046533 -102.796055 -0.000003 -0.000012 -19.547787 -1805.949227 158.731561 13.631252 -0.000002 0.000000 -14.881199 1809.022703 49.843719 -16.065110
64.756798 -43.411293 8.985611 4747.423851 0.503022 -22.116347 -0.780002 1.005795 5.403097 -20.855880 18.381204 14.002308 0.000003 -0.000004 4.236798 4.662454 -2.991148 -0.453951 0.000008 -0.000004 9.874411 -40.238290 26.309936 18.005962 -0.000000 0.000007 2.173892 -2.485115 5.186363 -6.708062 2.681609 -0.377601 5.432501 -10.230137 5.410405 -18.906416 5.161513 -0.000002 0.000004 -219.309014 -206.995371 -251.113107 0.000005 0.000005 -10.869108 -16.156949 2.071890 -0.488288 -0.000006 0.000005 -13.344793 -18.717848 9.980021 -29.862813 -2.381884 -1.419606 6.136599 8.546962 2.404526 2.867724 -4.550499 -0.000010 -0.000002 -1242.845482 -548.044653 -486.635406 0.000001 0.000005 -11.106505 724.028466 -9.804130 718.455414 0.000000 0.000001 -12.874300 -316.109050 -2.357207 29.730707 2.431895 0.469591 -2.489401 157.607694 -41.843160 137.352468 0.000000 -0.000010 -18.200203 -117.053118 34.683103 115.931109 0.000009 0.000004 -16.279900 -0.793521 39.715399 38.457233 -1.988001 -0.073510 -2.713003 -115.039182 -21.260612 -102.230850 -0.000010 -0.000003 -19.547783 -1805.547284 158.115191 13.619174 0.000001 0.000012 -14.881195 1807.401926 49.610324 -15.271939
64.525902 -43.473396 8.934410 4747.513900 -0.759325 -23.010376 -0.779998 1.005814 5.403089 -21.473792 18.079758 14.450039 0.000014 -0.000007 4.236794 4.762927 -2.997023 -0.357282 -0.000004 -0.000004 9.874391 -40.654584 26.665506 19.021469 0.000012 0.000004 2.173892 -2.557397 5.275805 -6.710645 2.681597 -0.377597 5.432492 -10.165760 5.447995 -18.510059 5.161510 0.000002 0.000000 -219.212422 -207.043688 -250.946232 -0.000005 0.000000 -10.869093 -16.324938 2.012147 -0.379226 0.000006 -0.000002 -13.344806 -19.083601 9.760997 -29.015275 -2.381899 -1.419604 6.136592 8.208672 2.259122 3.147802 -4.550511 -0.000007 0.000006 -1243.084156 -548.580249 -486.419189 0.000000 0.000003 -11.106503 724.708042 -10.218405 718.395909 -0.000009 0.000006 -12.874299 -314.846039 -1.772737 29.273228 2.431892 0.469610 -2.489399 156.463296 -42.584197 136.763159 -0.000002 -0.000001 -18.200201 -119.475377 34.905350 114.459142 0.000005 -0.000003 -16.279900 -2.014541 39.819866 39.419853 -1.988005 -0.073494 -2.713007 -114.476518 -21.790735 -101.087968 -0.000005 -0.000005 -19.547791 -1805.085454 157.433115 13.559236 0.000000 0.000002 -14.881202 1806.029003 49.365961 -14.549310
64.311890 -43.550602 8.880116 4747.539691 -2.025559 -23.914437 -0.780001 1.005808 5.403099 -22.142993 17.723200 14.974331 -0.000003 -0.000002 4.236803 4.932956 -2.987821 -0.330938 0.000007 -0.000004 9.874407 -41.096801 26.950752 20.061386 0.000006 0.000007 2.173901 -2.622516 5.342919 -6.746813 2.681604 -0.377587 5.432506 -10.959271 4.203257 -17.978496 5.161506 -0.000002 -0.000002 -219.126525 -208.272945 -249.800399 -0.000000 0.000003 -10.869103 -16.619688 1.963171 -0.282372 0.000005 0.000003 -13.344816 -19.145703 9.477419 -28.487992 -2.381896 -1.419596 6.136601 7.897897 2.127621 3.493648 -4.550496 -0.000007 -0.000004 -1243.344469 -549.169503 -486.265701 -0.000004 0.000003 -11.106503 725.492366 -10.486879 718.370501 -0.000010 -0.000006 -12.874297 -313.948990 -1.408351 28.909814 2.431893 0.469615 -2.489399 155.270854 -43.664399 136.086711 0.000001 -0.000009 -18.200211 -121.657239 35.356553 112.977619 0.000003 -0.000012 -16.279902 -2.661536 40.004678 40.455265 -1.988002 -0.073497 -2.713003 -113.831154 -22.383459 -99.877337 -0.000002 0.000002 -19.547787 -1804.654223 156.745875 13.479867 0.000003 0.000008 -14.881198 1804.951691 49.078065 -14.088654
